<?xml version="1.0" encoding="utf-8"?>
<!-- Generator: Adobe Illustrator 16.0.0, SVG Export Plug-In . SVG Version: 6.00 Build 0)  -->
<!DOCTYPE svg PUBLIC "-//W3C//DTD SVG 1.1//EN" "http://www.w3.org/Graphics/SVG/1.1/DTD/svg11.dtd">
<svg version="1.1" id="圖層_1" xmlns="http://www.w3.org/2000/svg" xmlns:xlink="http://www.w3.org/1999/xlink" x="0px" y="0px"
	 width="200px" height="150px" viewBox="0 0 200 150" enable-background="new 0 0 200 150" xml:space="preserve">
<path fill="#E6E6F9" d="M190.188,136.544c0,6.602-5.351,11.951-11.951,11.951H21.763c-6.601,0-11.951-5.35-11.951-11.951V13.456
	c0-6.601,5.351-11.951,11.951-11.951h156.475c6.601,0,11.951,5.351,11.951,11.951V136.544z"/>
<g>
	<text transform="matrix(1 0 0 1 28 51.9038)" fill="#606078" font-family="'MicrosoftJhengHeiBold'" font-size="36">換貨管理</text>
</g>
<g>
	<g>
		<g>
			<g>
				<path fill="#666666" d="M59.612,103.124c0-6.421-3.713-11.615-8.298-11.615"/>
				<path fill="#666666" d="M51.314,91.509c0,5.916,3.698,10.705,8.27,10.705"/>
			</g>
			<g>
				<path fill="#666666" d="M59.612,103.124c0-6.421,3.71-11.615,8.296-11.615"/>
				<path fill="#666666" d="M67.908,91.509c0,5.916-3.699,10.705-8.27,10.705"/>
			</g>
		</g>
		<path fill="#FFFFFF" stroke="#666666" stroke-width="4" stroke-miterlimit="10" d="M59.612,100.575H47.687
			c-3.488,0-6.314,4.833-6.314,10.795v4.379h18.24V100.575z"/>
		<path fill="#FFFFFF" stroke="#666666" stroke-width="4" stroke-miterlimit="10" d="M77.852,115.749v-4.379
			c0-5.962-2.826-10.795-6.314-10.795H59.612v15.174H77.852z"/>
		<path fill="#FFFFFF" stroke="#666666" stroke-width="4" stroke-miterlimit="10" d="M59.612,115.749v15.175h11.925
			c3.488,0,6.314-4.834,6.314-10.796v-4.379H59.612z"/>
		<path fill="#FFFFFF" stroke="#666666" stroke-width="4" stroke-miterlimit="10" d="M41.372,115.749v4.379
			c0,5.962,2.826,10.796,6.314,10.796h11.926v-15.175H41.372z"/>
	</g>
	<g>
		<path fill="none" stroke="#3E3D4D" stroke-width="7" stroke-miterlimit="10" d="M128.452,128.549
			c-4.986,2.431-10.586,3.794-16.506,3.794c-7.186,0-13.902-2.01-19.619-5.497c-4.455-2.718-8.303-6.335-11.291-10.597
			c-2.039-2.907-3.678-6.119-4.836-9.551c-1.281-3.791-1.975-7.852-1.975-12.075"/>
		<path fill="none" stroke="#3E3D4D" stroke-width="7" stroke-miterlimit="10" d="M77.487,79.262
			c1.768-3.964,4.201-7.565,7.158-10.664c3.801-3.988,8.467-7.145,13.697-9.167c4.221-1.632,8.807-2.527,13.604-2.527
			c6.797,0,13.174,1.798,18.68,4.943c6.313,3.606,11.482,8.982,14.836,15.452c2.686,5.188,4.203,11.079,4.203,17.324
			c0,3.82-0.568,7.51-1.625,10.985"/>
		<polygon fill="#3E3D4D" stroke="#3E3D4D" stroke-miterlimit="10" points="158.628,108.898 140.536,117.984 137.819,97.922 		"/>
		<polygon fill="#3E3D4D" stroke="#3E3D4D" stroke-miterlimit="10" points="62.886,98.564 76.505,83.584 86.247,101.331 		"/>
	</g>
</g>
</svg>
