<?xml version="1.0" encoding="utf-8"?>
<!-- Generator: Adobe Illustrator 16.0.0, SVG Export Plug-In . SVG Version: 6.00 Build 0)  -->
<!DOCTYPE svg PUBLIC "-//W3C//DTD SVG 1.1//EN" "http://www.w3.org/Graphics/SVG/1.1/DTD/svg11.dtd">
<svg version="1.1" id="圖層_1" xmlns="http://www.w3.org/2000/svg" xmlns:xlink="http://www.w3.org/1999/xlink" x="0px" y="0px"
	 width="200px" height="150px" viewBox="0 0 200 150" enable-background="new 0 0 200 150" xml:space="preserve">
<path fill="#E6E6F9" d="M190.188,136.544c0,6.602-5.351,11.951-11.951,11.951H21.763c-6.601,0-11.951-5.35-11.951-11.951V13.456
	c0-6.601,5.351-11.951,11.951-11.951h156.475c6.601,0,11.951,5.351,11.951,11.951V136.544z"/>
<text transform="matrix(1 0 0 1 28 51.9038)" fill="#606078" font-family="'MicrosoftJhengHeiBold'" font-size="36">關係管理</text>
<path fill="#3E3D4D" d="M78.188,106.962h-9.038c8.312-2.33,14.413-9.944,14.413-19c0-10.908-8.842-19.75-19.75-19.75
	s-19.75,8.842-19.75,19.75c0,9.056,6.102,16.67,14.413,19h-9.038c-5.799,0-10.5,8.843-10.5,19.75s4.701,19.75,10.5,19.75h28.75
	c5.799,0,10.5-8.843,10.5-19.75S83.986,106.962,78.188,106.962z"/>
<path fill="#3E3D4D" d="M151.563,106.962h-9.038c8.312-2.33,14.413-9.944,14.413-19c0-10.908-8.842-19.75-19.75-19.75
	s-19.75,8.842-19.75,19.75c0,9.056,6.102,16.67,14.413,19h-9.038c-5.799,0-10.5,8.843-10.5,19.75s4.701,19.75,10.5,19.75h28.75
	c5.799,0,10.5-8.843,10.5-19.75S157.361,106.962,151.563,106.962z"/>
<g>
	<path fill="#B2B1B8" d="M122.271,127.267c-6.126-5.318-13.337-7.977-21.633-7.977c-8.51,0-15.813,2.697-21.908,8.09v-3.414
		c5.989-5.395,13.307-8.09,21.954-8.09c8.448,0,15.644,2.674,21.587,8.02V127.267z M122.247,113.103
		c-6.11-5.348-13.313-8.02-21.609-8.02c-8.448,0.014-15.751,2.711-21.908,8.088v-3.414c5.958-5.363,13.276-8.053,21.954-8.066
		c8.448,0,15.636,2.682,21.563,8.043V113.103z"/>
</g>
</svg>
